Coordinates
version=1
nRows=65
nColumns=12
inDegrees=yes

Units are S.I. units (second, meters, Newtons, ...)
Angles are in degrees

endheader
time	SC_y	SC_z	SC_x	AC_y	AC_z	AC_x	GH_y	GH_z	GH_yy	EL_x	PS_y
       0.0              -27.24          11.04          74.92          44.37         -19.58         -4.424         -10.95          31.24         -174.3          76.79          156.7
    0.0406              -27.24          11.04          74.91          44.37         -19.58         -4.423         -10.95          31.24         -174.2          76.79          156.6
    0.0812              -27.24          11.05           74.9          44.37         -19.58         -4.422         -10.95          31.23         -174.2          76.79          156.6
    0.1218              -27.24          11.05          74.89          44.36         -19.58         -4.421         -10.95          31.23         -174.2          76.79          156.6
    0.1624              -27.24          11.05          74.88          44.36         -19.57         -4.421         -10.94          31.22         -174.2          76.79          156.6
     0.203              -27.24          11.06          74.87          44.36         -19.57          -4.42         -10.94          31.22         -174.2          76.79          156.5
    0.2436              -27.25          11.06          74.86          44.36         -19.57         -4.419         -10.94          31.21         -174.1          76.79          156.5
    0.2842              -27.25          11.07          74.85          44.36         -19.56         -4.418         -10.94           31.2         -174.1          76.79          156.5
    0.3248              -27.25          11.07          74.84          44.36         -19.56         -4.417         -10.93           31.2         -174.1          76.79          156.4
    0.3654              -27.25          11.08          74.83          44.35         -19.56         -4.415         -10.93          31.19         -174.1          76.79          156.4
     0.406              -27.25          11.09          74.82          44.35         -19.55         -4.414         -10.93          31.18         -174.0          76.79          156.4
    0.4466              -27.25          11.09           74.8          44.35         -19.55         -4.413         -10.92          31.17         -174.0          76.79          156.3
    0.4872              -27.25           11.1          74.79          44.35         -19.54         -4.411         -10.92          31.16         -174.0          76.79          156.3
    0.5278              -27.25          11.11          74.77          44.34         -19.54          -4.41         -10.92          31.15         -173.9          76.79          156.2
    0.5684              -27.25          11.11          74.75          44.34         -19.53         -4.408         -10.91          31.14         -173.9          76.79          156.2
     0.609              -27.25          11.12          74.73          44.34         -19.53         -4.406         -10.91          31.13         -173.8          76.79          156.1
    0.6496              -27.25          11.13          74.71          44.33         -19.52         -4.404          -10.9          31.11         -173.8           76.8          156.0
    0.6902              -27.26          11.14          74.69          44.33         -19.51         -4.402          -10.9           31.1         -173.7           76.8          156.0
    0.7308              -27.26          11.16          74.66          44.33         -19.51           -4.4         -10.89          31.08         -173.7           76.8          155.9
    0.7714              -27.26          11.17          74.63          44.32          -19.5         -4.397         -10.89          31.06         -173.6           76.8          155.8
     0.812              -27.26          11.18           74.6          44.32         -19.49         -4.394         -10.88          31.05         -173.6           76.8          155.7
    0.8526              -27.26           11.2          74.57          44.31         -19.48         -4.391         -10.87          31.02         -173.5           76.8          155.6
    0.8931              -27.26          11.21          74.53          44.31         -19.47         -4.387         -10.86           31.0         -173.4           76.8          155.5
    0.9337              -27.27          11.23          74.49           44.3         -19.45         -4.384         -10.85          30.97         -173.3           76.8          155.4
    0.9743              -27.27          11.25          74.45          44.29         -19.44         -4.379         -10.84          30.95         -173.2          76.81          155.3
     1.015              -27.27          11.28           74.4          44.28         -19.42         -4.374         -10.83          30.91         -173.1          76.81          155.1
     1.056              -27.28           11.3          74.34          44.27         -19.41         -4.369         -10.82          30.88         -173.0          76.81          154.9
     1.096              -27.28          11.33          74.27          44.26         -19.39         -4.363          -10.8          30.84         -172.8          76.81          154.8
     1.137              -27.28          11.37           74.2          44.25         -19.36         -4.356         -10.78          30.79         -172.7          76.81          154.5
     1.177              -27.29           11.4          74.12          44.24         -19.34         -4.348         -10.76          30.74         -172.5          76.82          154.3
     1.218              -27.29          11.45          74.03          44.22         -19.31         -4.339         -10.74          30.68         -172.3          76.82          154.0
     1.259               -27.3           11.5          73.92          44.21         -19.28         -4.329         -10.72          30.61         -172.0          76.83          153.7
     1.299              -27.31          11.55          73.79          44.19         -19.24         -4.318         -10.69          30.53         -171.7          76.83          153.3
      1.34              -27.31          11.62          73.65          44.16         -19.19         -4.304         -10.65          30.44         -171.4          76.84          152.9
      1.38              -27.32           11.7          73.48          44.14         -19.14         -4.288         -10.61          30.34         -171.0          76.84          152.4
     1.421              -27.34          11.79          73.28           44.1         -19.08         -4.269         -10.57          30.21         -170.6          76.85          151.8
     1.462              -27.35          11.89          73.04          44.07         -19.01         -4.247         -10.51          30.06         -170.1          76.86          151.1
     1.502              -27.37          12.02          72.76          44.02         -18.92          -4.22         -10.44          29.88         -169.4          76.87          150.3
     1.543              -27.38          12.18          72.42          43.97         -18.81         -4.187         -10.36          29.66         -168.6          76.88          149.3
     1.583              -27.41          12.37           72.0           43.9         -18.68         -4.148         -10.26           29.4         -167.7           76.9          148.0
     1.624              -27.44          12.61          71.48          43.81         -18.52         -4.099         -10.14          29.07         -166.5          76.92          146.5
     1.665              -27.47           12.9          70.83          43.71         -18.33         -4.037         -9.988          28.66         -165.1          76.94          144.6
     1.705              -27.52          13.28          70.02          43.58         -18.08         -3.961         -9.796          28.15         -163.3          76.97          142.2
     1.746              -27.58          13.75          68.98          43.41         -17.76         -3.863         -9.552          27.49         -161.0          77.01          139.1
     1.786              -27.66          14.35          67.66           43.2         -17.35         -3.737         -9.239          26.66         -158.0          77.06          135.2
     1.827              -27.75          15.13          65.95          42.93         -16.83         -3.577         -8.838          25.58         -154.2          77.13          130.1
     1.867              -27.88          16.12          63.78          42.58         -16.16         -3.372         -8.326          24.21         -149.3          77.21          123.7
     1.908              -28.03          17.36          61.05          42.14         -15.32         -3.113         -7.682          22.49         -143.2          77.31          115.6
     1.949              -28.22          18.88          57.72           41.6         -14.29         -2.799         -6.897          20.39         -135.7          77.44          105.8
     1.989              -28.44          20.64          53.86          40.98         -13.11         -2.434         -5.987          17.95         -127.1          77.58          94.37
      2.03              -28.68          22.55          49.69          40.31         -11.82          -2.04         -5.002          15.32         -117.7          77.74          82.01
      2.07              -28.91          24.45          45.51          39.64         -10.54         -1.645         -4.017          12.68         -108.4           77.9          69.65
     2.111              -29.13          26.21          41.65          39.02         -9.348          -1.28         -3.107          10.24         -99.74          78.04          58.24
     2.152              -29.32          27.73          38.32          38.48         -8.324        -0.9658         -2.323          8.142         -92.28          78.17          48.39
     2.192              -29.48          28.98          35.59          38.04         -7.484        -0.7077         -1.678          6.418         -86.16          78.27          40.31
     2.233               -29.6          29.97          33.42           37.7         -6.815        -0.5024         -1.166          5.046          -81.3          78.35          33.88
     2.273               -29.7          30.75          31.72          37.42         -6.292        -0.3417        -0.7652          3.973         -77.49          78.42          28.85
     2.314              -29.77          31.35          30.39          37.21         -5.885        -0.2165        -0.4528          3.136         -74.52          78.47          24.93
     2.355              -29.83          31.82          29.36          37.04         -5.566        -0.1187        -0.2086          2.483          -72.2          78.51          21.87
     2.395              -29.88          32.19          28.54          36.91         -5.315       -0.04173       -0.01657          1.969         -70.38          78.54          19.46
     2.436              -29.92          32.49           27.9          36.81         -5.116        0.01936         0.1359           1.56         -68.93          78.56          17.55
     2.476              -29.94          32.72          27.38          36.72         -4.957        0.06835         0.2581          1.233         -67.77          78.58          16.01
     2.517              -29.97          32.92          26.96          36.66         -4.828          0.108         0.3572          0.968         -66.83           78.6          14.77
     2.558              -29.99          33.07          26.62           36.6         -4.722         0.1405         0.4383          0.751         -66.06          78.61          13.75
     2.598               -30.0           33.2          26.33          36.56         -4.634         0.1674         0.5053         0.5715         -65.42          78.62          12.91
